<?xml version="1.0" standalone="no"?>
<!DOCTYPE svg PUBLIC "-//W3C//DTD SVG 1.1//EN" "http://www.w3.org/Graphics/SVG/1.1/DTD/svg11.dtd" >
<svg xmlns="http://www.w3.org/2000/svg">
<metadata>Generated by IcoMoon</metadata>
<defs>
<font id="giosg-icons" horiz-adv-x="1024">
<font-face units-per-em="1024" ascent="960" descent="-64" />
<missing-glyph horiz-adv-x="1024" />
<glyph unicode="&#x20;" horiz-adv-x="512" d="" />
<glyph unicode="&#xe900;" glyph-name="condition-circle" d="M512-64c-282.77 0-512 229.23-512 512s229.23 512 512 512c282.77 0 512-229.23 512-512s-229.23-512-512-512zM512 920.615c-261.018 0-472.615-211.597-472.615-472.615s211.597-472.615 472.615-472.615c261.018 0 472.615 211.597 472.615 472.615s-211.597 472.615-472.615 472.615zM512 736.689c-159.439 0-288.689-129.251-288.689-288.689s129.251-288.689 288.689-288.689c159.439 0 288.689 129.251 288.689 288.689s-129.251 288.689-288.689 288.689zM512 231.778c-119.416 0-216.222 96.806-216.222 216.222s96.806 216.222 216.222 216.222c119.416 0 216.222-96.806 216.222-216.222s-96.806-216.222-216.222-216.222zM638.425 448c0-69.822-56.602-126.425-126.425-126.425s-126.425 56.602-126.425 126.425c0 69.822 56.602 126.425 126.425 126.425s126.425-56.602 126.425-126.425z" />
<glyph unicode="&#xe901;" glyph-name="goal-circle" d="M784.148 526.769c-10.215-2.655-21.943-4.179-34.026-4.179-56.766 0-105.675 33.64-127.879 82.072-26.016 56.966-81.644 95.234-146.211 95.234-12.237 0-24.153-1.375-35.602-3.978-20.001-3.65-36.105-20.825-38.296-42.125l-0.017-239.663c4.827-1.569 10.382-2.473 16.148-2.473s11.32 0.904 16.53 2.579l2.375-0.106c30.326 6.695 62.622 9.846 142.178-28.357 100.037-48.049 187.471 39.385 221.342 101.612 6.265 12.897 10.134 27.994 10.63 43.941-7.735-1.912-16.983-3.58-26.45-4.5zM371.791 709.514h-19.692c-5.438 0-9.846-4.408-9.846-9.846v-527.36c0-5.438 4.408-9.846 9.846-9.846h19.692c5.438 0 9.846 4.408 9.846 9.846v527.36c0 5.438-4.408 9.846-9.846 9.846zM512-64c-282.77 0-512 229.23-512 512s229.23 512 512 512c282.77 0 512-229.23 512-512s-229.23-512-512-512zM512 920.615c-261.018 0-472.615-211.597-472.615-472.615s211.597-472.615 472.615-472.615c261.018 0 472.615 211.597 472.615 472.615s-211.597 472.615-472.615 472.615z" />
<glyph unicode="&#xe902;" glyph-name="room-circle" d="M512-64c-282.77 0-512 229.23-512 512s229.23 512 512 512c282.77 0 512-229.23 512-512s-229.23-512-512-512zM512 920.615c-261.018 0-472.615-211.597-472.615-472.615s211.597-472.615 472.615-472.615c261.018 0 472.615 211.597 472.615 472.615s-211.597 472.615-472.615 472.615zM669.538 221.145h-315.077c-0.47-0.016-1.021-0.025-1.575-0.025-27.407 0-49.625 22.218-49.625 49.625 0 0.009 0 0.018 0 0.026v317.832c0 0.007 0 0.016 0 0.025 0 27.407 22.218 49.625 49.625 49.625 0.554 0 1.106-0.009 1.655-0.027l61.36 0.002v-56.32h-55.926v-304.049h304.049v304.049h-142.178v56.32h147.692c0.47 0.016 1.021 0.025 1.575 0.025 27.407 0 49.625-22.218 49.625-49.625 0-0.009 0-0.018 0-0.026v-317.832c0-0.007 0-0.016 0-0.025 0-27.407-22.218-49.625-49.625-49.625-0.554 0-1.106 0.009-1.655 0.027z" />
<glyph unicode="&#xe903;" glyph-name="target-circle" d="M705.772 452.332c-0.334 103.719-84.492 187.67-188.258 187.67-3.048 0-6.079-0.072-9.091-0.216-105.399-0.41-191.021-86.296-191.021-192.179 0-106.147 86.049-192.197 192.197-192.197 6.114 0 12.162 0.286 18.13 0.844 99.311 6.090 178.145 88.755 178.145 189.833 0 2.196-0.037 4.384-0.111 6.562zM620.702 471.237l-21.268 8.665c-10.347 5.346-22.584 8.48-35.554 8.48-4.412 0-8.739-0.363-12.953-1.060-16.477-3.876-23.173-18.054-36.17-39.322-11.636-22.164-32.52-38.125-57.384-42.848-4.201-0.967-8.437-1.476-12.791-1.476-20.003 0-37.5 10.728-47.052 26.744-6.896 12.172-10.879 26.435-10.879 41.627 0 12.391 2.649 24.163 7.412 34.78 8.926 23.783 24.129 44.058 43.585 59.096 18.283 13.894 41.008 22.163 65.659 22.285 2.148 0.125 4.627 0.196 7.122 0.196 28.929 0 55.631-9.538 77.131-25.642 14.979-12.562 27.24-28.481 35.558-46.587 5.098-11.146 8.563-23.116 10.127-35.676 0.065-0.697 0.067-0.813 0.067-0.929 0-5.003-4.056-9.058-9.058-9.058-1.283 0-2.503 0.267-3.609 0.748zM233.551 309.366c-21.106 40.862-33.48 89.187-33.48 140.403 0 0.486 0.001 0.972 0.003 1.457 0.139 158.825 117.882 290.182 270.877 311.66l6.784-39.193c-136.593-17.6-241.103-133.013-241.428-272.902-0.001-0.289-0.001-0.592-0.001-0.895 0-45.092 10.919-87.633 30.257-125.124zM795.175 309.366l-33.871 17.329c18.421 35.977 29.216 78.485 29.216 123.514 0 94.509-47.555 177.91-120.041 227.582-34.365 23.749-74.405 39.817-117.675 45.742l3.701 39.544c51.429-6.966 97.492-25.56 136.887-53.049 81.886-56.918 135.473-151.654 135.473-258.905 0-51.697-12.451-100.486-34.517-143.532zM515.545 132.923c-0.035 0-0.077 0-0.118 0-97.076 0-183.898 43.902-241.695 112.934l29.137 24.912c50.933-61.231 127.146-99.926 212.397-99.926 83.621 0 158.547 37.229 209.107 96.017l29.056-24.449c-57.649-66.464-142.011-108.441-236.193-109.095zM512-64c-282.77 0-512 229.23-512 512s229.23 512 512 512c282.77 0 512-229.23 512-512s-229.23-512-512-512zM512 920.615c-261.018 0-472.615-211.597-472.615-472.615s211.597-472.615 472.615-472.615c261.018 0 472.615 211.597 472.615 472.615s-211.597 472.615-472.615 472.615z" />
<glyph unicode="&#xe904;" glyph-name="api" horiz-adv-x="1017" d="M512.411-60.489c-1.162-0.010-2.537-0.015-3.911-0.015-280.839 0-508.504 227.665-508.504 508.504s227.665 508.504 508.504 508.504c280.833 0 508.495-227.657 508.504-508.488 0-0.005 0-0.011 0-0.016 0-279.464-225.441-506.273-504.382-508.488zM512.411 917.403c-1.162 0.010-2.537 0.016-3.911 0.016-259.236 0-469.388-210.152-469.388-469.388s210.152-469.388 469.388-469.388c259.23 0 469.379 210.143 469.388 469.371 0 0.006 0 0.012 0 0.017 0 257.86-207.928 467.157-465.266 469.371zM395.064 304.070l-18.385 61.412h-95.051l-18.385-61.412h-56.718l90.357 258.946h66.106l90.748-258.946zM363.771 411.246l-28.946 94.269q-3.129 10.953-4.694 17.211-5.868-22.687-33.248-111.48zM676.697 481.263c0.124-1.648 0.194-3.569 0.194-5.508 0-23.103-10.014-43.866-25.939-58.187-18.254-13.89-41.277-22.215-66.245-22.215-2.591 0-5.162 0.089-7.708 0.266l-21.561-0.019v-91.531h-55.153v257.773h81.752c2.207 0.161 4.782 0.252 7.378 0.252 23.834 0 45.865-7.724 63.725-20.804 14.515-13.355 23.774-32.786 23.774-54.379 0-1.987-0.078-3.957-0.232-5.904zM554.264 442.147h17.993c1.827-0.201 3.947-0.315 6.093-0.315 12.321 0 23.761 3.772 33.228 10.226 7.507 6.3 12.379 15.911 12.379 26.661 0 0.758-0.024 1.51-0.072 2.255 0.083 0.787 0.127 1.819 0.127 2.863 0 10.008-4.086 19.063-10.681 25.586-7.869 5.735-17.724 9.172-28.383 9.172-1.438 0-2.862-0.063-4.269-0.186l-25.242 0.013zM732.241 304.070v257.773h54.371v-257.773z" />
<glyph unicode="&#xe905;" glyph-name="lock" d="M744.959 597.051h-43.349v66.56c-0.035 9.89-2.168 19.272-5.976 27.738-31.651 71.413-102.327 120.626-184.499 120.626-78.194 0-145.98-44.565-179.343-109.682l-4.624-9.328c-4.52-8.875-7.169-19.354-7.169-30.452 0-0.094 0-0.188 0.001-0.282v-65.18h-40.96c-41.096 0-74.411-33.315-74.411-74.411v-364.203c0.193-41.018 33.393-74.218 74.392-74.411h465.939c41.018 0.193 74.218 33.393 74.411 74.392v364.221c0 41.096-33.315 74.411-74.411 74.411zM363.348 662.246c0.027 4.114 1.033 7.987 2.797 11.405l4.030 9.416c26.588 52.017 79.796 87.010 141.177 87.010 64.43 0 119.855-38.556 144.461-93.855 1.686-3.924 2.438-7.325 2.448-10.901v-66.564h-294.912zM776.020 158.438c0-17.155-13.907-31.061-31.061-31.061h-465.92c-17.155 0-31.061 13.907-31.061 31.061v364.203c0 17.155 13.907 31.061 31.061 31.061h465.92c17.155 0 31.061-13.907 31.061-31.061zM512.169 489.873c-55.507-1.348-99.989-46.665-99.989-102.372 0-29.127 12.161-55.414 31.683-74.060l0.039-39.973c0-36.572 29.647-66.219 66.219-66.219s66.219 29.647 66.219 66.219v37.888c20.887 18.823 33.96 45.969 33.96 76.169 0 55.413-44.014 100.545-98.989 102.344zM534.015 335.249v-61.781c0-12.63-10.239-22.869-22.869-22.869s-22.869 10.239-22.869 22.869v62.805c-20.655 9.084-34.816 29.367-34.816 52.958 0 31.859 25.827 57.685 57.685 57.685s57.685-25.827 57.685-57.685c0-23.591-14.161-43.874-34.447-52.813z" />
<glyph unicode="&#xe906;" glyph-name="markup" d="M780.288 154.623h-536.576c-44.489 0-80.555 36.066-80.555 80.555v425.643c0 44.489 36.066 80.555 80.555 80.555h536.576c44.489 0 80.555-36.066 80.555-80.555v-425.643c0-44.489-36.066-80.555-80.555-80.555zM243.712 698.026c-20.401-0.193-36.864-16.776-36.864-37.204 0-0.001 0-0.001 0-0.002v-425.643c0-20.548 16.657-37.205 37.205-37.205h536.235c20.548 0 37.205 16.657 37.205 37.205v425.643c0 20.548-16.657 37.205-37.205 37.205zM185.002 633.514h653.995v-43.349h-653.995v43.349zM426.666 323.924l-132.779 59.051v22.528l132.779 66.56v-38.912l-81.579-37.205 81.579-34.133zM562.517 492.543l-71.68-192.171h-36.181l71.68 192.171zM589.482 362.495l81.579 34.133-81.579 37.205v38.229l132.779-66.56v-22.528l-132.779-59.051z" />
<glyph unicode="&#xe907;" glyph-name="network" d="M856.095 479.866c-12.228 11.679-28.833 18.866-47.116 18.866-19.635 0-37.334-8.29-49.788-21.56-4.797-5.208-8.801-11.178-11.806-17.703l-68.442 12.205c0.206 2.859 0.323 6.194 0.323 9.557s-0.117 6.698-0.348 10.003c-0.872 30.54-11.779 58.814-29.556 81.433l88.632 92.885c11.831-6.933 26.053-11.026 41.232-11.026 45.62 0 82.603 36.982 82.603 82.603s-36.982 82.603-82.603 82.603c-45.62 0-82.603-36.982-82.603-82.603 0-15.862 4.471-30.679 12.221-43.261l-88.61-92.827c-22.272 15.558-49.915 24.86-79.732 24.86-31.264 0-60.139-10.227-83.463-27.518l-149.808 123.831c3.984 9.413 6.3 20.358 6.3 31.844 0 46.186-37.441 83.627-83.627 83.627s-83.627-37.441-83.627-83.627c0-46.186 37.441-83.627 83.627-83.627 19.456 0 37.36 6.644 51.567 17.787l146.591-118.921c-7.578-10.786-13.842-23.234-18.156-36.559l-94.143 16.079c-6.661 34.43-36.562 60.075-72.453 60.075-40.719 0-73.728-33.009-73.728-73.728s33.009-73.728 73.728-73.728c0.032 0 0.063 0 0.095 0h2.043c29.15 0.672 53.999 18.4 65.012 43.564l90.977-15.575c-0.011-0.648-0.017-1.412-0.017-2.178 0-39.419 16.499-74.984 42.967-100.167 11.659-10.923 25.214-19.883 40.111-26.329l-42.443-138.589h-4.437c-44.804-0.578-80.902-37.033-80.902-81.92 0-45.247 36.68-81.926 81.926-81.926 0.36 0 0.72 0.002 1.079 0.007l2.335-0.001c44.14 1.408 79.387 37.528 79.387 81.881 0 28.839-14.902 54.197-37.425 68.794l43.713 140.482c4.437 0 8.875 0 13.312 0h4.096c55.38 0.702 102.75 34.268 123.562 82.063l73.046-13.114c6.568-31.39 34.016-54.627 66.89-54.627 0.484 0 0.967 0.005 1.448 0.015l0.952-0.001c37.016 0.885 66.686 31.102 66.686 68.248 0 19.651-8.303 37.363-21.592 49.818zM751.306 764.538c6.49 6.876 15.472 11.339 25.494 11.942l0.106 0.005c21.267-0.046 38.489-17.297 38.489-38.571 0-21.302-17.269-38.571-38.571-38.571s-38.571 17.269-38.571 38.571c0 10.332 4.062 19.715 10.677 26.639zM205.172 723.237c-7.062 6.993-11.435 16.691-11.435 27.41 0 21.302 17.269 38.571 38.571 38.571s38.571-17.269 38.571-38.571c0-10.719-4.373-20.417-11.432-27.407-7.018-7.209-16.813-11.68-27.651-11.68s-20.633 4.47-27.64 11.668zM264.906 513.658c-5.317-5.699-12.795-9.322-21.12-9.556-0.48-0.024-0.991-0.037-1.507-0.037-7.921 0-15.109 3.137-20.389 8.237-5.927 5.551-9.625 13.436-9.625 22.185 0 16.565 13.258 30.033 29.741 30.372 1.16 0.16 2.464 0.251 3.788 0.251 7.376 0 14.093-2.819 19.134-7.437 5.49-5.481 8.9-13.085 8.9-21.485s-3.41-16.004-8.92-21.503zM469.706 113.957c-7.061-7.565-17.091-12.28-28.222-12.28-21.302 0-38.571 17.269-38.571 38.571 0 21.024 16.821 38.119 37.738 38.562l0.041 0.001c0.235 0.005 0.513 0.008 0.791 0.008 21.302 0 38.571-17.269 38.571-38.571 0-10.171-3.937-19.422-10.369-26.313zM613.407 421.157c-17.672-18.406-42.484-29.843-69.966-29.843-53.538 0-96.939 43.401-96.939 96.939s43.401 96.939 96.939 96.939c53.126 0 96.271-42.736 96.931-95.705 0.001-0.082 0.001-0.105 0.001-0.128 0-26.649-10.829-50.768-28.328-68.198zM828.447 413.306v0c-4.619-4.914-11.162-7.975-18.419-7.975-13.95 0-25.259 11.309-25.259 25.259s11.309 25.259 25.259 25.259c13.666 0 24.798-10.853 25.245-24.411-0.055-7.333-3.193-13.881-8.173-18.456z" />
<glyph unicode="&#xe908;" glyph-name="panel" d="M780.97 741.376h-536.576c-0.406 0.007-0.885 0.012-1.365 0.012-44.489 0-80.555-36.066-80.555-80.555 0-0.004 0-0.008 0-0.012v-425.642c0-0.003 0-0.008 0-0.012 0-44.489 36.066-80.555 80.555-80.555 0.48 0 0.959 0.004 1.437 0.013l536.504-0.001c44.489 0 80.555 36.066 80.555 80.555v425.643c0 44.489-36.066 80.555-80.555 80.555zM244.394 698.027h536.576c20.401-0.193 36.864-16.776 36.864-37.204 0-0.001 0-0.001 0-0.002v-82.944h-610.645v82.944c0 20.548 16.657 37.205 37.205 37.205zM780.97 197.973h-536.576c-20.548 0-37.205 16.657-37.205 37.205v299.349h610.645v-299.349c0 0 0-0.001 0-0.002 0-20.428-16.463-37.011-36.846-37.204zM382.975 410.624h26.283c9.614 0 17.408-7.794 17.408-17.408v-26.283c0-9.614-7.794-17.408-17.408-17.408h-26.283c-9.614 0-17.408 7.794-17.408 17.408v26.283c0 9.614 7.794 17.408 17.408 17.408zM504.831 410.624h26.283c9.614 0 17.408-7.794 17.408-17.408v-26.283c0-9.614-7.794-17.408-17.408-17.408h-26.283c-9.614 0-17.408 7.794-17.408 17.408v26.283c0 9.614 7.794 17.408 17.408 17.408zM627.028 410.624h26.283c9.614 0 17.408-7.794 17.408-17.408v-26.283c0-9.614-7.794-17.408-17.408-17.408h-26.283c-9.614 0-17.408 7.794-17.408 17.408v26.283c0 9.614 7.794 17.408 17.408 17.408z" />
<glyph unicode="&#xe909;" glyph-name="screen" d="M832.001 788.138h-640c-0.004 0-0.008 0-0.013 0-40.719 0-73.728-33.009-73.728-73.728 0-0.48 0.005-0.959 0.014-1.437l-0.001-419.768c0-40.719 33.009-73.728 73.728-73.728h252.928l-36.523-68.267h-50.859v-43.349h331.093v42.667h-51.2l-36.523 68.267h231.083c40.719 0 73.728 33.009 73.728 73.728v420.523c0.008 0.406 0.013 0.885 0.013 1.365 0 40.719-33.009 73.728-73.728 73.728-0.004 0-0.009 0-0.013 0zM588.289 150.527h-130.731l36.523 68.267h58.027zM861.356 293.204c0-16.778-13.601-30.379-30.379-30.379h-638.976c-16.778 0-30.379 13.601-30.379 30.379v419.84c0 16.778 13.601 30.379 30.379 30.379h640c16.778 0 30.379-13.601 30.379-30.379zM359.937 606.89c-1.846 1.811-4.377 2.928-7.169 2.928-5.605 0-10.158-4.503-10.239-10.089v-159.752c0.035-5.063 4.148-9.154 9.216-9.154 2.529 0 4.821 1.019 6.486 2.669l34.133 34.133 41.301-88.405c2.459-1.502 5.435-2.391 8.618-2.391 0.090 0 0.18 0.001 0.27 0.002 9.224 0 16.712 7.488 16.712 16.725l-39.253 83.968h47.104c5.063 0.035 9.154 4.148 9.154 9.216 0 2.529-1.019 4.821-2.669 6.486zM599.553 606.89c-1.846 1.811-4.377 2.928-7.169 2.928-5.605 0-10.158-4.503-10.239-10.089v-159.752c0.035-5.063 4.148-9.154 9.216-9.154 2.529 0 4.821 1.019 6.486 2.669l34.133 34.133 41.301-88.405c2.459-1.502 5.435-2.391 8.618-2.391 0.090 0 0.18 0.001 0.27 0.002 9.224 0 16.712 7.488 16.712 16.725l-39.253 83.968h47.104c5.063 0.035 9.154 4.148 9.154 9.216 0 2.529-1.019 4.821-2.669 6.486z" />
<glyph unicode="&#xe90a;" glyph-name="settings" d="M796.672 740.864h-536.576c0 0 0 0-0.001 0-44.369 0-80.36-35.871-80.554-80.195v-426.003c0.194-44.342 36.185-80.213 80.554-80.213 0 0 0 0 0.001 0h536.576c44.489 0 80.555 36.066 80.555 80.555v425.643c-0.194 44.342-36.185 80.213-80.554 80.213 0 0 0 0-0.001 0zM260.096 697.515h536.576c20.548 0 37.205-16.657 37.205-37.205v-27.307h-610.987v27.307c0 20.548 16.657 37.205 37.205 37.205zM796.672 197.803h-536.576c-20.548 0-37.205 16.657-37.205 37.205v354.645h610.987v-354.987c-0.193-20.401-16.776-36.864-37.204-36.864-0.001 0-0.001 0-0.002 0zM676.523 434.347l-8.533 3.072-19.456 7.509v4.779l6.485 15.36 5.461 13.312c1.093 2.425 1.729 5.256 1.729 8.237 0 5.905-2.499 11.225-6.496 14.963l-18.444 17.76c-3.587 3.611-8.556 5.847-14.047 5.847-2.949 0-5.748-0.645-8.263-1.802l-13.53-5.752-15.36-6.485-8.533 5.12-12.629 27.989c-3.254 6.533-9.78 11-17.374 11.263l-27.682 0.001c-7.518-0.315-13.923-4.777-17.015-11.146l-6.196-14.795-5.12-15.019c-1.857-1.066-4.007-1.995-6.265-2.674l-28.551 11.207c-2.659 1.217-5.767 1.926-9.041 1.926-6.394 0-12.157-2.705-16.206-7.033l-16.054-16.055c-4.306-3.832-7.005-9.389-7.005-15.577 0-3.139 0.695-6.116 1.939-8.786l1.994-4.651c3.072-7.168 6.144-13.995 10.581-22.187-0.536-2.216-1.238-4.15-2.124-5.977l-25.524-10.065c-9.816-2.717-16.902-11.569-16.902-22.077 0-1.001 0.064-1.987 0.189-2.955l-0.012-6.371c0-4.437 0-8.875 0-13.312-0.025-0.394-0.040-0.853-0.040-1.317 0-9.384 5.918-17.387 14.225-20.479l5.612-2.097c6.324-2.925 13.669-5.186 21.357-6.421l3.56-6.55c-4.096-9.557-8.192-19.456-11.947-29.013-0.96-2.33-1.517-5.034-1.517-7.869 0-5.368 1.998-10.269 5.292-13.999 6.466-6.804 12.951-13.289 19.778-19.433 3.585-3.341 8.41-5.392 13.715-5.392 2.554 0 4.996 0.475 7.244 1.342 10.102 4.049 20.342 8.487 28.876 12.583 0.872 0.209 1.873 0.329 2.901 0.329s2.030-0.12 2.989-0.346l1.96-4.42 10.24-23.211c3.215-7.603 10.611-12.84 19.231-12.84 1.043 0 2.068 0.077 3.069 0.225l23.097-0.014c0.192-0.006 0.418-0.010 0.645-0.010 9.373 0 17.368 5.903 20.468 14.195l10.631 25.751 4.437 2.048 19.115-7.851 9.216-3.413 11.947-3.072 6.144 3.072 12.629 10.581 9.216 8.875c5.162 4.226 8.431 10.599 8.431 17.735 0 3.341-0.716 6.514-2.004 9.375 0.058 3.952-3.355 8.048-5.403 12.144l-5.12 10.923s0 0 0 0c0.85 1.357 1.652 2.93 2.316 4.573l15.092 6.35 11.264 4.437c9.515 3.416 16.198 12.359 16.198 22.863 0 0.964-0.056 1.915-0.166 2.85-0.18 2.592-0.289 5.749-0.289 8.932s0.109 6.34 0.323 9.468c0.1 0.443 0.171 1.444 0.171 2.461 0 10.252-7.174 18.828-16.776 20.983zM651.605 392.363l-16.725-6.827c-3.343-1.226-6.194-3.088-8.531-5.459-2.746-3.33-5.045-7.164-6.725-11.315-1.826-3.142-3.23-6.437-4.143-9.93-0.305-1.757-0.446-3.48-0.446-5.236 0-5.015 1.151-9.761 3.202-13.989l2.306-5.27 4.096-9.216 2.731-6.485-6.827-6.827-6.144-0.341-22.528 9.216c-2.59 0.886-5.574 1.397-8.678 1.397-5.38 0-10.402-1.537-14.649-4.195-13.537-6.076-16.268-12.903-17.292-14.951l-9.557-23.552h-13.653l-7.509 17.067-3.072 6.827c-3.639 6.767-9.631 11.872-16.857 14.276-4.313 1.667-9.065 2.599-14.034 2.599s-9.72-0.931-14.089-2.629l-22.263-9.467-6.485 10.581 9.899 24.235c1.174 3.089 1.854 6.66 1.854 10.39 0 5.195-1.319 10.081-3.639 14.343l0.079-0.158c-2.809 8.925-9.78 15.784-18.578 18.382l-23.748 9.266c0 2.731 0 5.803 0 8.533v3.072l27.307 10.923 7.509 3.755 4.096 8.875c2.132 4.024 3.892 8.692 5.041 13.595 0.259 1.67 0.362 3.137 0.362 4.628 0 5.178-1.24 10.066-3.438 14.384-2.647 6.646-5.719 13.473-8.45 20.3l8.192 8.192 27.648-9.216c2.229-0.872 4.81-1.377 7.509-1.377s5.28 0.505 7.654 1.426l2.928-0.049c5.856 1.805 10.956 4.363 15.524 7.62 4.692 4.248 8.276 9.934 10.021 16.375l4.151 10.138 2.731 6.485h11.605l10.581-23.893c3.577-8.605 11.132-14.919 20.306-16.697 3.658-2.038 7.836-3.223 12.291-3.223s8.633 1.185 12.237 3.258l15.923 6.763 7.168 3.072 8.192-7.851-3.072-7.168-7.168-17.408c-1.601-3.297-2.536-7.171-2.536-11.264s0.936-7.967 2.604-11.421l-0.068-4.28c3.016-8.045 9.486-14.179 17.556-16.674l19.308-7.219h2.731q0-5.803 0-11.605zM534.187 460.971c-0.001 0-0.003 0-0.004 0-32.938 0-59.685-26.509-60.070-59.356-0.002-0.214-0.003-0.423-0.003-0.633 0-16.149 6.521-30.776 17.073-41.39 10.983-11.081 26.178-17.977 42.984-18.088h0.021c0.205-0.003 0.448-0.004 0.691-0.004 33.008 0 59.834 26.471 60.407 59.342 0.001 0.058 0.001 0.064 0.001 0.069 0 33.178-26.896 60.075-60.075 60.075-0.48 0-0.959-0.006-1.436-0.017zM534.187 372.565v0c-8.152 0.14-15.492 3.506-20.82 8.873-5.061 5.014-8.194 11.964-8.194 19.646 0 0.054 0 0.108 0 0.161v-0.008c0.567 15.577 13.332 27.989 28.995 27.989 0.006 0 0.013 0 0.019 0h-0.001c0.098 0.001 0.213 0.002 0.328 0.002 8.119 0 15.477-3.258 20.838-8.539 5.059-5.061 8.19-12.057 8.19-19.784 0-0.123-0.001-0.247-0.002-0.37-0.566-15.371-13.178-27.632-28.654-27.632-0.126 0-0.253 0.001-0.379 0.002z" />
<glyph unicode="&#xe90b;" glyph-name="swimlane" d="M928.768 753.493h-832.171c-0.304 0.003-0.664 0.005-1.024 0.005-52.784 0-95.573-42.79-95.573-95.573 0-0.002 0-0.004 0-0.006v-414.72c0-0.002 0-0.004 0-0.005 0-52.784 42.79-95.573 95.573-95.573 0.36 0 0.72 0.002 1.079 0.006h832.116c52.637 0.194 95.232 42.909 95.232 95.573 0 0 0 0 0 0.001v414.72c0 0 0 0 0 0.001 0 52.664-42.595 95.379-95.213 95.573zM96.597 708.437h832.171c27.9 0 50.517-22.617 50.517-50.517v-73.387h-933.547v73.387c0 0 0 0.001 0 0.001 0 27.9 22.617 50.517 50.517 50.517 0.12 0 0.24 0 0.36-0.001zM928.768 192.683h-832.171c-0.101-0.001-0.221-0.001-0.341-0.001-27.9 0-50.517 22.617-50.517 50.517 0 0 0 0.001 0 0.001v296.96h933.547v-296.96c0-27.9-22.617-50.517-50.517-50.517zM576.853 326.144c0-20.359-16.505-36.864-36.864-36.864s-36.864 16.505-36.864 36.864c0 20.359 16.505 36.864 36.864 36.864s36.864-16.505 36.864-36.864zM702.123 436.395c0-20.359-16.505-36.864-36.864-36.864s-36.864 16.505-36.864 36.864c0 20.359 16.505 36.864 36.864 36.864s36.864-16.505 36.864-36.864zM878.592 374.272c0-31.482-25.521-57.003-57.003-57.003s-57.003 25.521-57.003 57.003c0 31.482 25.521 57.003 57.003 57.003s57.003-25.521 57.003-57.003zM282.965 385.536c0-20.359-16.505-36.864-36.864-36.864s-36.864 16.505-36.864 36.864c0 20.359 16.505 36.864 36.864 36.864s36.864-16.505 36.864-36.864z" />
<glyph unicode="&#xe90c;" glyph-name="target" d="M754.984 453.316c-0.265 132.127-107.435 239.133-239.594 239.133-4.793 0-9.545-0.137-14.274-0.418-133.080-1.819-240.779-110.66-240.779-244.653 0-135.147 109.558-244.705 244.705-244.705 7.087 0 14.1 0.298 21.034 0.893 127.477 6.623 229.033 112.345 229.033 241.779 0 2.802-0.046 5.59-0.139 8.372zM646.462 477.568l-27.234 10.634c-12.244 5.85-26.6 9.273-41.769 9.273-7.057 0-13.949-0.744-20.586-2.154-20.631-4.992-29.566-22.863-46.166-48.398-14.836-28.128-41.377-48.381-72.978-54.366-5.319-1.219-10.676-1.847-16.18-1.847-25.546 0-47.88 13.721-60.043 34.193-8.607 15.365-13.581 33.327-13.581 52.451 0 16.114 3.524 31.405 9.854 45.146 11.038 30.753 30.29 57.004 55.103 76.508 23.448 17.81 52.666 28.366 84.355 28.366 0.392 0 0.797-0.002 1.188-0.006 2.721 0.171 5.964 0.265 9.235 0.265 36.729 0 70.632-12.087 97.948-32.488 18.471-16.517 33.489-37.271 43.408-60.71 6.162-13.471 10.483-27.803 12.662-42.832 0.27-1.581 0.366-2.421 0.366-3.3 0-6.347-5.143-11.49-11.49-11.49-1.476 0-2.885 0.281-4.178 0.782zM139.18 263.936c-26.858 53.17-42.593 115.914-42.593 182.327 0 1.885 0.015 3.767 0.034 5.642 0.514 210.127 156.765 383.888 359.553 411.856l9.414-53.378c-178.281-24.532-314.173-175.733-314.501-358.722-0.033-1.944-0.059-4.186-0.059-6.441 0-57.144 13.378-111.161 37.166-159.095zM883.088 263.936l-48.088 24.258c24.343 47.448 38.61 103.506 38.61 162.91 0 123.424-61.595 232.465-155.732 298.056-45.422 31.726-98.514 53.172-155.94 61.008l5.382 53.832c68.165-9.367 129.188-34.134 181.347-70.675 108.068-75.382 178.749-200.589 178.749-342.306 0-68.207-16.373-132.594-45.41-189.442zM512.406 32.42c-0.332-0.002-0.713-0.002-1.106-0.002-128.219 0-242.903 57.98-319.252 149.158l42.030 35.126c66.976-80.009 166.893-130.539 278.605-130.539 109.558 0 207.765 48.594 274.256 125.397l42.942-34.866c-76.622-88.738-189.244-144.587-314.907-144.691z" />
<glyph unicode="&#xe90d;" glyph-name="tree" d="M750.643 328.107c-51.215-0.065-93.981-36.157-104.322-84.29l-84.094-0.702c-16.778 0-30.379 13.601-30.379 30.379v208.213h114.688c10.409-48.963 53.285-85.163 104.616-85.163 59.005 0 106.837 47.833 106.837 106.837s-47.833 106.837-106.837 106.837c-51.331 0-94.206-36.2-104.491-84.463l-114.813-0.7v97.621c0 40.719-33.009 73.728-73.728 73.728h-80.896c-10.409 48.963-53.285 85.163-104.616 85.163-59.005 0-106.837-47.833-106.837-106.837s47.833-106.837 106.837-106.837c51.331 0 94.206 36.2 104.491 84.463l81.021 0.7c16.778 0 30.379-13.601 30.379-30.379v-348.16c0-40.719 33.009-73.728 73.728-73.728h84.309c9.936-49.549 53.097-86.355 104.856-86.355 59.005 0 106.837 47.833 106.837 106.837s-47.833 106.837-106.837 106.837c-0.263 0-0.526-0.001-0.789-0.003zM750.643 567.040c35.063 0 63.488-28.425 63.488-63.488s-28.425-63.488-63.488-63.488c-35.063 0-63.488 28.425-63.488 63.488s28.425 63.488 63.488 63.488zM272.777 611.414c-0.101-0.001-0.221-0.001-0.341-0.001-35.063 0-63.488 28.425-63.488 63.488s28.425 63.488 63.488 63.488c35.063 0 63.487-28.424 63.488-63.487 0 0 0-0.001 0-0.001 0-34.943-28.23-63.293-63.128-63.487zM750.643 157.44c-35.063 0-63.488 28.425-63.488 63.488s28.425 63.488 63.488 63.488c35.063 0 63.488-28.425 63.488-63.488s-28.425-63.488-63.488-63.488z" />
<glyph unicode="&#xe90e;" glyph-name="users" d="M519.852 528.222c0.098 0 0.215-0.001 0.331-0.001 49.956 0 90.453 40.497 90.453 90.453s-40.497 90.453-90.453 90.453c-49.956 0-90.453-40.497-90.453-90.453 0-0.48 0.004-0.959 0.011-1.437 0.766-49.177 40.777-88.829 90.093-89.016zM519.852 664.755c26.015 0 47.104-21.089 47.104-47.104s-21.089-47.104-47.104-47.104c-26.015 0-47.104 21.089-47.104 47.104s21.089 47.104 47.104 47.104zM763.223 423.774c45.809 0 82.944 37.135 82.944 82.944s-37.135 82.944-82.944 82.944c-45.809 0-82.944-37.135-82.944-82.944s37.135-82.944 82.944-82.944zM763.223 546.313c21.868 0 39.595-17.727 39.595-39.595s-17.727-39.595-39.595-39.595c-21.868 0-39.595 17.727-39.595 39.595s17.727 39.595 39.595 39.595zM810.668 400.563h-108.544c-6.418-0.035-12.669-0.654-18.73-1.808-2.163 54.409-46.879 97.381-101.633 97.381-0.045 0-0.090 0-0.135 0h-140.281c-0.043 0-0.095 0-0.146 0-54.633 0-99.273-42.784-102.243-96.675-5.205 0.748-11.214 1.365-17.353 1.443l-107.245 0.001c-56.554 0-102.4-45.846-102.4-102.4v-74.411c0.931-20.75 17.98-37.22 38.875-37.22 0.373 0 0.745 0.005 1.115 0.016l233.417-0.001c21.491 0 38.912 17.421 38.912 38.912v34.133h176.128v-34.133c0-21.491 17.421-38.912 38.912-38.912h233.813c21.491 0 38.912 17.421 38.912 38.912v73.387c-0.573 55.757-45.619 100.803-101.321 101.376zM383.319 380.425v13.995c0 32.236 26.132 58.368 58.368 58.368h141.312c32.236 0 58.368-26.132 58.368-58.368v-14.677c-5.306-4.080-9.996-8.445-14.248-13.211l-2.478-3.173c-3.355-4.102-6.515-8.676-9.294-13.499l-2.994-5.275c-1.917-3.863-3.771-8.499-5.271-13.291-0.19-2.752-0.19-5.141-2.238-7.189-0.88-3.745-1.604-8.287-2.019-12.918-0.029-2.442-0.029-4.49-0.029-6.538h-178.176c0 2.048 0 4.096 0 6.144-0.426 5.129-1.151 9.791-2.178 14.338 0.13 1.704 0.13 3.752-1.918 6.142-1.696 5.502-3.55 10.137-5.723 14.588l-5.541 3.161c-3.042 5.318-6.202 9.893-9.703 14.179l-2.244 2.888c-4.617 5.142-9.645 9.737-15.090 13.802zM381.271 228.873h-225.28v70.315c0 32.236 26.132 58.368 58.368 58.368h108.544c0.101 0.001 0.22 0.001 0.339 0.001 8.008 0 15.635-1.632 22.566-4.581l5.084-2.929c9.076-5.13 16.457-12.293 21.698-20.902l0.148-0.261c1.99-3.421 3.73-7.379 5.012-11.538l0.108-3.139c1.236-4.281 1.979-9.208 2.048-14.297v-70.012zM869.036 228.873h-225.28v70.315c0.020 4.857 0.642 9.56 1.793 14.051l-0.086 3.357c1.184 3.819 2.574 7.096 4.244 10.2l-0.148 2.429c5.287 8.533 12.421 15.448 20.877 20.328l3.357 0.152c7.452 3.84 16.257 6.106 25.588 6.144h108.556c32.236 0 58.368-26.132 58.368-58.368zM275.799 423.774c45.809 0 82.944 37.135 82.944 82.944s-37.135 82.944-82.944 82.944c-45.809 0-82.944-37.135-82.944-82.944s37.135-82.944 82.944-82.944zM275.799 546.313c21.868 0 39.595-17.727 39.595-39.595s-17.727-39.595-39.595-39.595c-21.868 0-39.595 17.727-39.595 39.595s17.727 39.595 39.595 39.595z" />
<glyph unicode="&#xe90f;" glyph-name="condition" d="M512 832c-212.081 0-384-171.919-384-384s171.919-384 384-384c212.081 0 384 171.919 384 384s-171.919 384-384 384zM512 160.396c-158.845 0-287.604 128.76-287.604 287.604s128.76 287.604 287.604 287.604c158.845 0 287.604-128.76 287.604-287.604s-128.76-287.604-287.604-287.604zM680.168 448c0-92.872-75.288-168.168-168.168-168.168s-168.168 75.288-168.168 168.168c0 92.872 75.288 168.168 168.168 168.168s168.168-75.288 168.168-168.168z" />
<glyph unicode="&#xe910;" glyph-name="play-circle" d="M512-64c-282.77 0-512 229.23-512 512s229.23 512 512 512c282.77 0 512-229.23 512-512s-229.23-512-512-512zM512 920.615c-261.018 0-472.615-211.597-472.615-472.615s211.597-472.615 472.615-472.615c261.018 0 472.615 211.597 472.615 472.615s-211.597 472.615-472.615 472.615zM425.748 668.16l283.175-206.769c3.359-2.382 5.524-6.255 5.524-10.634s-2.165-8.252-5.484-10.607l-282.822-212.31c-2.231-1.857-5.127-2.983-8.286-2.983-7.178 0-12.997 5.819-12.997 12.997 0 0.218 0.005 0.435 0.016 0.651l-0.001 419.022c-0.002 0.089-0.003 0.194-0.003 0.298 0 7.178 5.819 12.997 12.997 12.997 2.977 0 5.72-1.001 7.911-2.684z" />
<glyph unicode="&#xe911;" glyph-name="goal" d="M781.571 566.016c-13.28-3.451-28.525-5.433-44.234-5.433-73.796 0-137.377 43.732-166.242 106.694-33.821 74.055-106.138 123.804-190.074 123.804-15.908 0-31.399-1.787-46.283-5.171-26.001-4.745-46.937-27.073-49.785-54.763l-0.022-311.562c6.275-2.039 13.496-3.215 20.992-3.215s14.716 1.176 21.488 3.353l3.088-0.138c39.424 8.704 81.408 12.8 184.832-36.864 130.048-62.464 243.712 51.2 287.744 132.096 8.145 16.766 13.174 36.392 13.819 57.123-10.056-2.485-22.078-4.654-34.385-5.849zM245.507 803.584h-25.6c-7.069 0-12.8-5.731-12.8-12.8v-685.568c0-7.069 5.731-12.8 12.8-12.8h25.6c7.069 0 12.8 5.731 12.8 12.8v685.568c0 7.069-5.731 12.8-12.8 12.8z" />
<glyph unicode="&#xe912;" glyph-name="play" d="M338.179 734.208l368.128-268.8c4.366-3.097 7.181-8.132 7.181-13.824s-2.815-10.727-7.129-13.789l-368.18-276.003c-2.901-2.414-6.665-3.879-10.771-3.879-9.331 0-16.896 7.565-16.896 16.896 0 0.284 0.007 0.566 0.021 0.846l-0.002 544.729c-0.012 0.241-0.019 0.523-0.019 0.807 0 9.331 7.565 16.896 16.896 16.896 4.106 0 7.871-1.465 10.799-3.901z" />
<glyph unicode="&#xe913;" glyph-name="room" d="M716.8 176.896h-409.6c-0.61-0.021-1.328-0.033-2.048-0.033-35.629 0-64.512 28.883-64.512 64.512 0 0.011 0 0.023 0 0.034v413.182c0 0.010 0 0.021 0 0.033 0 35.629 28.883 64.512 64.512 64.512 0.72 0 1.438-0.012 2.152-0.035l77.72 0.003v-73.216h-70.656v-395.264h395.264v395.264h-184.832v73.216h192c0.61 0.021 1.328 0.033 2.048 0.033 35.629 0 64.512-28.883 64.512-64.512 0-0.011 0-0.023 0-0.034v-413.182c0-0.010 0-0.021 0-0.033 0-35.629-28.883-64.512-64.512-64.512-0.72 0-1.438 0.012-2.152 0.035z" />
<glyph unicode="&#xe914;" glyph-name="apps" horiz-adv-x="804" d="M401.83 212.685l-248.809-148.277 65.835 281.726-218.857 190.981 288.547 24.021 113.284 266.898 113.284-266.898 288.547-24.021-218.56-190.981 65.538-282.616z" />
<glyph unicode="&#xe915;" glyph-name="canned-answers" horiz-adv-x="764" d="M684.446 827.44c0.495 0.012 1.078 0.018 1.663 0.018 21.743 0 41.359-9.105 55.245-23.71 14.833-13.968 24.052-33.693 24.052-55.571 0-0.075 0-0.15 0-0.226v-604.958c-1.127-43.433-36.043-78.35-79.37-79.474l-606.558-0.002c-0.109-0.001-0.238-0.001-0.366-0.001-21.774 0-41.424 9.096-55.357 23.695-14.658 13.991-23.753 33.641-23.753 55.416 0 0.129 0 0.258 0.001 0.386v604.95c-0.001 0.109-0.001 0.238-0.001 0.366 0 21.774 9.096 41.424 23.695 55.357 14.013 14.833 33.778 24.049 55.696 24.049 0.030 0 0.060 0 0.091 0zM604.97 572.997v95.49h-444.831v-95.49zM604.97 398.031v95.194h-444.831v-96.677zM477.748 223.064v95.194h-318.499v-95.49z" />
<glyph unicode="&#xe916;" glyph-name="chatbot" d="M512.172 960c-0.102 0-0.223 0-0.344 0-282.865 0-512.172-229.307-512.172-512.172s229.307-512.172 512.172-512.172c282.865 0 512.172 229.307 512.172 512.172 0 282.744-229.111 511.976-511.809 512.172zM822.162 167.804c-7.477-8.526-15.241-16.289-23.481-23.521-72.778 49.008-159.968 82.178-254.076 92.195-18.852 1.886-37.874 2.841-57.12 2.841-101.444 0-196.695-26.515-279.201-72.992-57.501 78.616-93.927 177.010-93.927 283.913s36.426 205.297 97.543 283.448c1.992 2.431 23.003 22.753 23.003 22.753 78.338-58.526 177.089-93.708 284.057-93.708 1.61 0 3.218 0.008 4.824 0.024 103.733 1.877 199.212 36.761 276.55 94.577 7.688-7.914 15.496-15.722 22.292-24.363 53.431-79.771 85.137-177.548 85.137-282.731s-31.706-202.959-86.083-284.295zM361.999 462.638c0-36.904-29.916-66.82-66.82-66.82s-66.82 29.916-66.82 66.82c0 36.904 29.916 66.82 66.82 66.82s66.82-29.916 66.82-66.82zM796.674 462.638c0-36.904-29.916-66.82-66.82-66.82s-66.82 29.916-66.82 66.82c0 36.904 29.916 66.82 66.82 66.82s66.82-29.916 66.82-66.82zM516.65 360.686c47.937 0 86.797 38.86 86.797 86.797h-172.217c0-0.003 0-0.007 0-0.011 0-47.452 38.079-86.011 85.347-86.785z" />
<glyph unicode="&#xe917;" glyph-name="basket" horiz-adv-x="828" d="M0 853.537h135.228l37.959-83.628h612.68c0.177 0.003 0.386 0.004 0.595 0.004 11.318 0 21.578-4.529 29.067-11.873 7.942-6.736 12.973-16.708 13.042-27.858 0.020-0.514 0.032-1.103 0.032-1.696 0-6.587-1.432-12.839-4.001-18.463l-148.163-256.538c-11.929-26.145-37.842-43.989-67.924-43.989-1.352 0-2.695 0.036-4.028 0.107l-310.009-0.008-41.814-63.462c-1.598-3.4-2.929-7.367-3.793-11.506-0.118-0.729-0.149-1.159-0.149-1.596 0-4.913 3.983-8.897 8.897-8.897 0.344 0 0.683 0.020 1.017 0.058l474.445-0.004v-79.476h-484.272c-1.244-0.059-2.703-0.093-4.17-0.093-23.099 0-44.252 8.331-60.619 22.152-15.28 14.128-24.904 34.45-24.904 57.020 0 1.6 0.048 3.188 0.144 4.764-0.025 0.336-0.034 0.986-0.034 1.638 0 13.509 3.642 26.167 9.998 37.046l61.495 101.073-148.277 300.409h-82.442zM184.16 178.877c14.818 14.847 35.304 24.032 57.935 24.032 0.484 0 0.966-0.004 1.448-0.013 44.968 0.001 81.48-36.511 81.48-81.551 0.011-0.496 0.017-1.081 0.017-1.667 0-22.486-9.068-42.855-23.746-57.648-14.133-15.336-34.325-24.913-56.754-24.913-0.376 0-0.751 0.003-1.125 0.008-0.281-0.006-0.68-0.009-1.080-0.009-22.871 0-43.51 9.553-58.145 24.887-15.394 14.649-24.95 35.249-24.95 58.081 0 0.444 0.004 0.886 0.011 1.328-0.004 0.202-0.006 0.52-0.006 0.838 0 22.388 9.578 42.538 24.86 56.577zM591.032 178.877c14.313 14.825 34.364 24.031 56.565 24.031 0.444 0 0.888-0.004 1.33-0.011 0.306 0.007 0.747 0.010 1.188 0.010 22.669 0 43.194-9.183 58.057-24.031 15.34-14.138 24.917-34.33 24.917-56.759 0-0.376-0.003-0.751-0.008-1.125-0.657-45.863-37.708-82.913-83.565-83.571-0.38-0.005-0.755-0.008-1.131-0.008-22.429 0-42.621 9.577-56.711 24.864-14.722 14.842-23.79 35.21-23.79 57.697 0 0.586 0.006 1.171 0.018 1.755-0.011 0.371-0.016 0.91-0.016 1.45 0 21.765 8.848 41.464 23.143 55.695z" />
</font>
</defs>
</svg>
