<svg xmlns="http://www.w3.org/2000/svg" viewBox="0 0 25.81 26"><title>rules_ui_facelift</title><path d="M12.9,26a13,13,0,1,1,12.9-13A13,13,0,0,1,12.9,26Zm0-25a12,12,0,1,0,11.9,12A12,12,0,0,0,12.9,1Z"/><path d="M9.9,16.68l-.47-1.57H7l-.47,1.57H5.08l2.31-6.62H9.08l2.32,6.62Zm-.8-2.74-.74-2.41q-.08-.28-.12-.44-.15.58-.85,2.85Z"/><path d="M17.1,12.15a2,2,0,0,1-.66,1.63,2.81,2.81,0,0,1-1.88.56H14v2.34H12.59V10.09h2.09a2.76,2.76,0,0,1,1.81.52A1.89,1.89,0,0,1,17.1,12.15Zm-3.13,1h.46a1.51,1.51,0,0,0,1-.25.89.89,0,0,0,.32-.74.92.92,0,0,0-.27-.73,1.24,1.24,0,0,0-.83-.23H14Z"/><path d="M18.52,16.68V10.09h1.39v6.59Z"/></svg>