<svg xmlns="http://www.w3.org/2000/svg" viewBox="0 0 27.91 34.53"><title>console_chat_bot</title><path d="M0,3.59H4.56L5.84,6.41H26.5a1.4,1.4,0,0,1,1,.4,1.24,1.24,0,0,1,.44.94,1.5,1.5,0,0,1-.13.67l-5,8.66a2.51,2.51,0,0,1-2.42,1.48H9.93L8.52,20.7a1.85,1.85,0,0,0-.13.4.3.3,0,0,0,.33.34h16v2.68H8.39a3.17,3.17,0,0,1-2.18-.74,2.62,2.62,0,0,1-.84-2.08A2.48,2.48,0,0,1,5.7,20l2.08-3.42-5-10.13H0ZM6.21,26.34a2.76,2.76,0,0,1,2-.81,2.75,2.75,0,0,1,2.75,2.75,2.76,2.76,0,0,1-.8,2,2.6,2.6,0,0,1-1.95.84,2.71,2.71,0,0,1-2-.84,2.7,2.7,0,0,1-.84-2A2.59,2.59,0,0,1,6.21,26.34Zm13.72,0a2.65,2.65,0,0,1,1.95-.81,2.77,2.77,0,0,1,2,.81,2.6,2.6,0,0,1,.84,1.95,2.86,2.86,0,0,1-2.82,2.82,2.6,2.6,0,0,1-1.95-.84,2.76,2.76,0,0,1-.8-2A2.65,2.65,0,0,1,19.93,26.34Z"/></svg>