<svg xmlns="http://www.w3.org/2000/svg" viewBox="0 0 29.73 29.73"><title>console_chat_bot</title><path d="M14.87,0A14.87,14.87,0,1,0,29.73,14.87,14.87,14.87,0,0,0,14.87,0Zm9,23a7.29,7.29,0,0,1-.69.69A16.37,16.37,0,0,0,15.74,21a16.54,16.54,0,0,0-9.61,2,13.37,13.37,0,0,1,0-16.4c.08-.1.69-.69.69-.69a13.86,13.86,0,0,0,8.38,2.72,13.84,13.84,0,0,0,8-2.72,4,4,0,0,1,.69.69,14.87,14.87,0,0,1,0,16.4Z"/><circle cx="8.57" cy="14.44" r="1.94"/><circle cx="21.19" cy="14.44" r="1.94"/><path d="M15,17.4a2.52,2.52,0,0,0,2.52-2.52h-5A2.52,2.52,0,0,0,15,17.4Z"/></svg>