<svg xmlns="http://www.w3.org/2000/svg" viewBox="0 0 20 20"><title>rules_ui_facelift</title><path d="M4.73,5A7.14,7.14,0,0,1,10,2.8,7.15,7.15,0,0,1,15.22,5a7.15,7.15,0,0,1,2.17,5.25,7.15,7.15,0,0,1-2.17,5.25A7.15,7.15,0,0,1,10,17.63a7.14,7.14,0,0,1-5.25-2.17,7.14,7.14,0,0,1-2.17-5.25A7.14,7.14,0,0,1,4.73,5ZM5.87,15l.07.07a6.74,6.74,0,0,0,.76.53A3.16,3.16,0,0,1,6,13.06l.1-.79s0-.1,0-.18A.35.35,0,0,1,6,11.9c0-.15,0-.25-.13-.3l-.13-.13a1.65,1.65,0,0,1-.4-.56,1.45,1.45,0,0,1,.33-1.42.56.56,0,0,0-.07-.63l-.26-.43a.27.27,0,0,0-.12-.2c-.08-.07-.1-.13-.08-.2A.15.15,0,0,0,5,7.83l-.17-.1a.42.42,0,0,1-.2-.45.71.71,0,0,0,0-.41,6.3,6.3,0,0,0-.91,3.81,6.21,6.21,0,0,0,1.44,3.61l0,0v0h0a3.68,3.68,0,0,0,.3.36l.18.17L5.8,15Zm1.36.89.26.13.33.1a6.41,6.41,0,0,0,1.42.33A6.26,6.26,0,0,0,12,16.24a5.73,5.73,0,0,0,1.42-.66.78.78,0,0,0,.2-.4,3.89,3.89,0,0,1,.13-.4,2,2,0,0,0,.12-.74,1.16,1.16,0,0,1,.28-.81.86.86,0,0,0,.2-.36.91.91,0,0,0,0-.38,1.73,1.73,0,0,1,0-.38,2,2,0,0,1,.1-.43.9.9,0,0,0,0-.53s0,0-.13,0-.14,0-.17,0a.32.32,0,0,0-.25-.12,1.68,1.68,0,0,0-.4,0l-.28,0a2.48,2.48,0,0,1-1.09-.76c-.07-.07-.06-.35,0-.86A2.74,2.74,0,0,0,12.19,9a1.23,1.23,0,0,1,.15-.55.62.62,0,0,1,.41-.25A.36.36,0,0,0,12.94,8a.44.44,0,0,1,.15-.18l.25-.07.25-.07a1.27,1.27,0,0,1,.45,0,2.65,2.65,0,0,0,.41,0,1.54,1.54,0,0,1,.73.36.38.38,0,0,0,.21.12l.27,0a.8.8,0,0,1,.25,0q.13,0-.07-.27a.47.47,0,0,0-.26-.07,1.37,1.37,0,0,1-.66-.48,2.93,2.93,0,0,0-.53-.51q-.23-.13-.36,0l0,.4a1.34,1.34,0,0,1-.43.17q-.3.07-.56-.33c-.11-.2-.09-.33.07-.4h.1l.13,0,.17,0,.17-.07.13-.08a.33.33,0,0,0,.1-.12.14.14,0,0,0,0-.13.57.57,0,0,1,0-.23q0-.2-.13-.23a.61.61,0,0,1-.25-.13.61.61,0,0,0-.25-.13c-.11,0-.17-.18-.17-.46s.05-.23.17-.23h.13a6.33,6.33,0,0,0-1.89-.79q-.13.4-.26.4l-.3.1a1.51,1.51,0,0,0-.17.22A1.47,1.47,0,0,1,10.6,5l-.15.12a.13.13,0,0,1-.17,0,1.11,1.11,0,0,1-.18-.28.85.85,0,0,1,0-.5,1,1,0,0,0,0-.43h-.3a.39.39,0,0,1-.26.63.58.58,0,0,1-.28-.08.38.38,0,0,0-.28,0,.5.5,0,0,1-.18,0,.22.22,0,0,0-.18,0q-.43.2-.46.4t.1.35q.16,0,.36-.15.46-.46.83-.2a.57.57,0,0,1,.17.46,1.47,1.47,0,0,1,0,.23.68.68,0,0,1-.08.21.16.16,0,0,1-.2.08l-.12,0-.12-.07a.21.21,0,0,0-.13,0,4.7,4.7,0,0,1-1,.3A2.36,2.36,0,0,0,7.57,6l-.35.15q-.36.13-.4.4,0,.46-.1.5s-.09,0-.15-.15a1.7,1.7,0,0,0-.23-.36A.36.36,0,0,0,6,6.41a1.07,1.07,0,0,0-.63.31.57.57,0,0,0-.2.61s.1.08.25.12a.65.65,0,0,1,.26.1s0,.12-.18.25a.27.27,0,0,0,0,.17l0,.28a2.15,2.15,0,0,1,0,.21.49.49,0,0,0,.26.36.35.35,0,0,0,.43,0,.42.42,0,0,1,.46-.07,9.8,9.8,0,0,1,1.49.89,2.33,2.33,0,0,1,.25.46,1,1,0,0,0,.31.46,2.05,2.05,0,0,0,.38.17,1.13,1.13,0,0,1,.48.3.38.38,0,0,1,0,.41,1.11,1.11,0,0,1-.28.35,1.49,1.49,0,0,0-.26.46,2.57,2.57,0,0,1-.26.5,1.18,1.18,0,0,1-.53.23s-.06,0-.1.08l-.12.17L8,13.33a2.81,2.81,0,0,0-.23.3,1.17,1.17,0,0,1-.33.33,1.35,1.35,0,0,0-.6,1.46A.75.75,0,0,0,7.23,15.94Zm6.09-10q.2.43.1.5a.22.22,0,0,1-.21,0,.3.3,0,0,1-.22-.2A.63.63,0,0,1,13,6l0-.1h-.1c-.13,0-.2,0-.2-.13a.36.36,0,0,1,.17-.13.1.1,0,0,0,0-.07c0-.13,0-.19.1-.17A.79.79,0,0,1,13.32,5.91Z"/></svg>