<svg xmlns="http://www.w3.org/2000/svg" viewBox="0 0 26 26"><title>rules_ui_facelift</title><path d="M19.91,11a3.57,3.57,0,0,1-4.12-2,4.06,4.06,0,0,0-4.58-2.3,1.22,1.22,0,0,0-1,1.08v6.08a1.37,1.37,0,0,0,.82,0l.07,0c.77-.17,1.59-.25,3.61.72,2.54,1.22,4.76-1,5.62-2.58a2.81,2.81,0,0,0,.27-1.12A4.48,4.48,0,0,1,19.91,11Z"/><path d="M9.44,6.36h-.5a.25.25,0,0,0-.25.25V20a.25.25,0,0,0,.25.25h.5A.25.25,0,0,0,9.69,20V6.61A.25.25,0,0,0,9.44,6.36Z"/><path d="M13,26A13,13,0,1,1,26,13,13,13,0,0,1,13,26ZM13,1A12,12,0,1,0,25,13,12,12,0,0,0,13,1Z"/></svg>