<svg xmlns="http://www.w3.org/2000/svg" viewBox="0 0 30 30"><title>giosg-icons</title><path d="M23.12,6.33H7.4A2.36,2.36,0,0,0,5,8.69V21.16A2.36,2.36,0,0,0,7.4,23.52H23.12a2.36,2.36,0,0,0,2.36-2.36V8.69A2.36,2.36,0,0,0,23.12,6.33ZM7.4,7.6H23.12A1.09,1.09,0,0,1,24.2,8.69v2.43H6.31V8.69A1.09,1.09,0,0,1,7.4,7.6ZM23.12,22.25H7.4a1.09,1.09,0,0,1-1.09-1.09V12.39H24.2v8.77A1.09,1.09,0,0,1,23.12,22.25Z"/><rect x="10.95" y="16.02" width="1.79" height="1.79" rx="0.51" ry="0.51"/><rect x="14.52" y="16.02" width="1.79" height="1.79" rx="0.51" ry="0.51"/><rect x="18.1" y="16.02" width="1.79" height="1.79" rx="0.51" ry="0.51"/></svg>