<svg xmlns="http://www.w3.org/2000/svg" viewBox="0 0 30 30"><title>giosg-icons</title><path d="M25.2,5.8H6.45A2.16,2.16,0,0,0,4.29,8V20.3a2.16,2.16,0,0,0,2.16,2.16h7.41l-1.07,2H11.3v1.27H21V24.48H19.5l-1.07-2H25.2a2.16,2.16,0,0,0,2.16-2.16V8A2.16,2.16,0,0,0,25.2,5.8ZM18.06,24.48H14.23l1.07-2H17Zm8-4.18a.89.89,0,0,1-.89.89H6.45a.89.89,0,0,1-.89-.89V8a.89.89,0,0,1,.89-.89H25.2a.89.89,0,0,1,.89.89Z"/><path d="M11.37,11.11a.3.3,0,0,0-.51.21V16a.27.27,0,0,0,.46.19l1-1,1.21,2.59h0a.49.49,0,0,0,.26.07.49.49,0,0,0,.49-.49l-1.15-2.46h1.38a.27.27,0,0,0,.19-.46Z"/><path d="M18.39,11.11a.3.3,0,0,0-.51.21V16a.27.27,0,0,0,.46.19l1-1,1.21,2.59h0a.49.49,0,0,0,.26.07.49.49,0,0,0,.49-.49l-1.15-2.46h1.38a.27.27,0,0,0,.19-.46Z"/></svg>