<svg xmlns="http://www.w3.org/2000/svg" viewBox="0 0 30 30"><title>giosg-icons</title><path d="M23.34,6.42H7.62A2.36,2.36,0,0,0,5.26,8.77V21.25A2.36,2.36,0,0,0,7.62,23.6H23.34a2.36,2.36,0,0,0,2.36-2.36V8.77A2.36,2.36,0,0,0,23.34,6.42ZM7.62,7.69H23.34a1.09,1.09,0,0,1,1.09,1.09v.8H6.53v-.8A1.09,1.09,0,0,1,7.62,7.69ZM23.34,22.33H7.62a1.09,1.09,0,0,1-1.09-1.09V10.85H24.43v10.4A1.09,1.09,0,0,1,23.34,22.33Z"/><path d="M19.82,15.4l-.25-.09L19,15.09,19,15l0-.05.19-.45.16-.39a.6.6,0,0,0-.14-.68l-.54-.52a.58.58,0,0,0-.65-.12l-.4.17-.45.19L16.92,13l-.37-.82a.59.59,0,0,0-.51-.33h-.81a.58.58,0,0,0-.5.33l-.18.43-.15.44a.91.91,0,0,1-.19.08l-.83-.33a.65.65,0,0,0-.74.15l-.47.47a.61.61,0,0,0-.15.71l.06.14c.09.21.18.41.31.65a.86.86,0,0,1-.06.17l-.75.3a.67.67,0,0,0-.49.73v.19c0,.13,0,.26,0,.39a.64.64,0,0,0,.42.64l.16.06a2.5,2.5,0,0,0,.64.19l.09.19c-.12.28-.24.57-.35.85a.62.62,0,0,0,.11.64c.19.2.38.39.58.57a.59.59,0,0,0,.61.12c.3-.12.6-.25.85-.37a.38.38,0,0,1,.17,0l.06.13.3.68a.61.61,0,0,0,.65.37h.68a.64.64,0,0,0,.62-.42l.31-.75.13-.06.56.23.27.1.35.09.18-.09.37-.31.27-.26a.67.67,0,0,0,.19-.79c0-.12-.1-.24-.16-.36L19,17.83s0,0,0,0a.9.9,0,0,0,.07-.14l.44-.18.33-.13a.71.71,0,0,0,.47-.75,4,4,0,0,1,0-.53A.63.63,0,0,0,19.82,15.4Zm-.73,1.23-.49.2a.67.67,0,0,0-.25.16,1.28,1.28,0,0,0-.2.34,1.1,1.1,0,0,0-.12.29.94.94,0,0,0,.08.55l.07.16.12.27.08.19-.2.2,0,0L18,19l-.66-.27a.81.81,0,0,0-.68.08c-.4.18-.48.38-.51.44l-.28.69h-.4l-.22-.5-.09-.2a.87.87,0,0,0-.5-.42,1.14,1.14,0,0,0-.81,0l-.66.28L13,18.79l.29-.71a.88.88,0,0,0-.05-.72l0,0a.81.81,0,0,0-.55-.54L12,16.55c0-.08,0-.17,0-.25v-.09l.8-.32.22-.11.12-.26a1.73,1.73,0,0,0,.15-.41.93.93,0,0,0-.09-.54c-.08-.2-.17-.4-.25-.6l.24-.24L14,14a.62.62,0,0,0,.44,0l.09,0a1.57,1.57,0,0,0,.45-.22,1,1,0,0,0,.3-.49L15.4,13l.08-.19h.34l.31.7a.81.81,0,0,0,.6.49.72.72,0,0,0,.71,0l.47-.2.21-.09.24.23-.09.21-.21.51a.77.77,0,0,0,0,.66l0,.13a.8.8,0,0,0,.52.49l.56.21.08,0q0,.17,0,.34Z"/><path d="M15.65,14.62a1.76,1.76,0,0,0-1.76,1.74,1.72,1.72,0,0,0,.5,1.23,1.79,1.79,0,0,0,1.26.53h0a1.77,1.77,0,0,0,1.79-1.74,1.76,1.76,0,0,0-1.8-1.76Zm0,2.59h0a.88.88,0,0,1-.61-.26.81.81,0,0,1-.24-.58h0a.85.85,0,0,1,.85-.82h0a.87.87,0,0,1,.62.25.82.82,0,0,1,.24.59A.84.84,0,0,1,15.66,17.2Z"/></svg>