<svg xmlns="http://www.w3.org/2000/svg" viewBox="0 0 30 30"><title>giosg-icons</title><path d="M27.21,6.05H2.83A2.8,2.8,0,0,0,0,8.85V21A2.8,2.8,0,0,0,2.83,23.8H27.21A2.8,2.8,0,0,0,30,21V8.85A2.8,2.8,0,0,0,27.21,6.05ZM2.83,7.37H27.21a1.48,1.48,0,0,1,1.48,1.48V11H1.34V8.85A1.48,1.48,0,0,1,2.83,7.37ZM27.21,22.48H2.83A1.48,1.48,0,0,1,1.34,21v-8.7H28.69V21A1.48,1.48,0,0,1,27.21,22.48Z"/><circle cx="15.82" cy="18.57" r="1.08"/><circle cx="19.49" cy="15.34" r="1.08"/><circle cx="24.07" cy="17.16" r="1.67"/><circle cx="7.21" cy="16.83" r="1.08"/></svg>