<svg xmlns="http://www.w3.org/2000/svg" viewBox="0 0 26 26"><title>rules_ui_facelift</title><path d="M17.92,12.89a4.78,4.78,0,0,0-5-4.76,4.88,4.88,0,1,0,.46,9.74A4.83,4.83,0,0,0,17.92,12.89Zm-2.16-.48-.54-.22A2,2,0,0,0,14,12c-.43.1-.6.46-.93,1a2.08,2.08,0,0,1-1.47,1.09,1.39,1.39,0,0,1-1.51-.65A2.16,2.16,0,0,1,10,11.52,3.4,3.4,0,0,1,11.12,10a2.78,2.78,0,0,1,1.66-.56,3.27,3.27,0,0,1,2.13.64,3.38,3.38,0,0,1,.92,1.21,3.11,3.11,0,0,1,.25.9A.23.23,0,0,1,15.76,12.41Z"/><path d="M5.93,16.52a7.9,7.9,0,0,1-.85-3.6A8,8,0,0,1,12,5l.13,1A7,7,0,0,0,6,12.93a6.94,6.94,0,0,0,.75,3.16Z"/><path d="M20.19,16.52l-.86-.44A7,7,0,0,0,17,7.15,6.93,6.93,0,0,0,14,6l.13-1a7.89,7.89,0,0,1,3.45,1.33A8,8,0,0,1,20.19,16.52Z"/><path d="M13.09,21a8,8,0,0,1-6.15-2.88l.75-.62a7,7,0,0,0,10.71.09l.73.63a8,8,0,0,1-6,2.77Z"/><path d="M13,26A13,13,0,1,1,26,13,13,13,0,0,1,13,26ZM13,1A12,12,0,1,0,25,13,12,12,0,0,0,13,1Z"/></svg>