<svg xmlns="http://www.w3.org/2000/svg" viewBox="0 0 30 30"><title>giosg-icons</title><path d="M21.34,14.88a5.63,5.63,0,0,0-5.95-5.61,5.75,5.75,0,1,0,.55,11.48A5.69,5.69,0,0,0,21.34,14.88Zm-2.55-.57-.64-.25a2.32,2.32,0,0,0-1.45-.17c-.5.12-.71.54-1.1,1.14a2.45,2.45,0,0,1-1.73,1.28,1.64,1.64,0,0,1-1.78-.77A2.54,2.54,0,0,1,12,13.27a4,4,0,0,1,1.31-1.82,3.28,3.28,0,0,1,2-.66,3.85,3.85,0,0,1,2.51.75A4,4,0,0,1,18.86,13,3.66,3.66,0,0,1,19.15,14,.27.27,0,0,1,18.79,14.31Z"/><path d="M6.87,19.33a9.67,9.67,0,0,1-1-4.41,9.8,9.8,0,0,1,8.5-9.69l.17,1.26a8.52,8.52,0,0,0-7.39,8.43A8.42,8.42,0,0,0,8,18.76Z"/><path d="M24.35,19.33l-1.13-.57A8.53,8.53,0,0,0,20.44,7.91a8.41,8.41,0,0,0-3.68-1.42l.17-1.26a9.68,9.68,0,0,1,4.23,1.64A9.8,9.8,0,0,1,24.35,19.33Z"/><path d="M15.64,24.77A9.78,9.78,0,0,1,8.1,21.25l1-.81a8.52,8.52,0,0,0,13,.11l1,.83a9.77,9.77,0,0,1-7.4,3.4Z"/></svg>