<svg xmlns="http://www.w3.org/2000/svg" viewBox="0 0 30 30"><title>giosg-icons</title><path d="M22,18a3.13,3.13,0,0,0-3.06,2.49H16.48a.89.89,0,0,1-.89-.89v-6.1h3.36a3.13,3.13,0,1,0,0-1.27H15.59V9.37a2.16,2.16,0,0,0-2.16-2.16H11.06a3.13,3.13,0,1,0,0,1.27h2.37a.89.89,0,0,1,.89.89v10.2a2.16,2.16,0,0,0,2.16,2.16h2.47A3.13,3.13,0,1,0,22,18Zm0-7a1.86,1.86,0,1,1-1.86,1.86A1.86,1.86,0,0,1,22,11ZM8,9.7A1.86,1.86,0,1,1,9.85,7.84,1.86,1.86,0,0,1,8,9.7ZM22,23a1.86,1.86,0,1,1,1.86-1.86A1.86,1.86,0,0,1,22,23Z"/></svg>