<svg xmlns="http://www.w3.org/2000/svg" viewBox="0 0 30 30"><title>giosg-icons</title><path d="M15.24,12A2.65,2.65,0,1,0,12.6,9.39,2.65,2.65,0,0,0,15.24,12Zm0-4a1.38,1.38,0,1,1-1.38,1.38A1.38,1.38,0,0,1,15.24,8Z"/><path d="M22.37,15.06a2.43,2.43,0,1,0-2.43-2.43A2.43,2.43,0,0,0,22.37,15.06Zm0-3.59a1.16,1.16,0,1,1-1.16,1.16A1.16,1.16,0,0,1,22.37,11.47Z"/><path d="M23.76,15.74H20.58a3,3,0,0,0-.53.05,3,3,0,0,0-3-2.85H12.94a3,3,0,0,0-3,2.84,3,3,0,0,0-.51-.05H6.29a3,3,0,0,0-3,3v2.18A1.14,1.14,0,0,0,4.46,22H11.3a1.14,1.14,0,0,0,1.14-1.14v-1H17.6v1A1.14,1.14,0,0,0,18.74,22h6.85a1.14,1.14,0,0,0,1.14-1.14V18.71A3,3,0,0,0,23.76,15.74Zm-12.52.59v-.41a1.71,1.71,0,0,1,1.71-1.71h4.14a1.71,1.71,0,0,1,1.71,1.71v.43l0,0a3,3,0,0,0-.42.39l-.07.09a3,3,0,0,0-.28.41l-.08.14a2.91,2.91,0,0,0-.16.41c0,.06,0,.13-.06.19a3,3,0,0,0-.06.39c0,.06,0,.12,0,.18H12.45c0-.06,0-.12,0-.18a3,3,0,0,0-.06-.4c0-.07,0-.13-.06-.2a2.94,2.94,0,0,0-.16-.41L12,17.25a3,3,0,0,0-.28-.41l-.07-.09a3,3,0,0,0-.45-.41Zm-.06,4.44H4.58V18.71A1.71,1.71,0,0,1,6.29,17H9.47a1.69,1.69,0,0,1,.66.13l.16.09a1.73,1.73,0,0,1,.64.62v0a1.69,1.69,0,0,1,.15.35l0,.08a1.65,1.65,0,0,1,.06.42v2.05Zm14.29,0h-6.6V18.71a1.68,1.68,0,0,1,.05-.4l0-.11a1.66,1.66,0,0,1,.12-.29l0-.08a1.73,1.73,0,0,1,.62-.6l.09,0a1.68,1.68,0,0,1,.75-.18h3.18a1.71,1.71,0,0,1,1.71,1.71Z"/><path d="M8.09,15.06a2.43,2.43,0,1,0-2.43-2.43A2.43,2.43,0,0,0,8.09,15.06Zm0-3.59a1.16,1.16,0,1,1-1.16,1.16A1.16,1.16,0,0,1,8.09,11.47Z"/></svg>